%TF.GenerationSoftware,KiCad,Pcbnew,9.0.6*%
%TF.CreationDate,2025-12-05T22:26:19+05:30*%
%TF.ProjectId,MacropadHACKYEahh,4d616372-6f70-4616-9448-41434b594561,rev?*%
%TF.SameCoordinates,Original*%
%TF.FileFunction,Copper,L2,Bot*%
%TF.FilePolarity,Positive*%
%FSLAX46Y46*%
G04 Gerber Fmt 4.6, Leading zero omitted, Abs format (unit mm)*
G04 Created by KiCad (PCBNEW 9.0.6) date 2025-12-05 22:26:19*
%MOMM*%
%LPD*%
G01*
G04 APERTURE LIST*
%TA.AperFunction,ComponentPad*%
%ADD10C,2.200000*%
%TD*%
%TA.AperFunction,ComponentPad*%
%ADD11C,1.524000*%
%TD*%
%TA.AperFunction,ViaPad*%
%ADD12C,0.600000*%
%TD*%
%TA.AperFunction,Conductor*%
%ADD13C,0.200000*%
%TD*%
G04 APERTURE END LIST*
D10*
%TO.P,SW2,1,1*%
%TO.N,GND*%
X178593750Y-100012500D03*
%TO.P,SW2,2,2*%
%TO.N,Net-(U1-GPIO2{slash}SCK)*%
X172243750Y-102552500D03*
%TD*%
D11*
%TO.P,U1,1,GPIO26/ADC0/A0*%
%TO.N,unconnected-(U1-GPIO26{slash}ADC0{slash}A0-Pad1)*%
X159067500Y-63817500D03*
%TO.P,U1,2,GPIO27/ADC1/A1*%
%TO.N,unconnected-(U1-GPIO27{slash}ADC1{slash}A1-Pad2)*%
X159067500Y-66357500D03*
%TO.P,U1,3,GPIO28/ADC2/A2*%
%TO.N,unconnected-(U1-GPIO28{slash}ADC2{slash}A2-Pad3)*%
X159067500Y-68897500D03*
%TO.P,U1,4,GPIO29/ADC3/A3*%
%TO.N,unconnected-(U1-GPIO29{slash}ADC3{slash}A3-Pad4)*%
X159067500Y-71437500D03*
%TO.P,U1,5,GPIO6/SDA*%
%TO.N,Net-(D1-DIN)*%
X159067500Y-73977500D03*
%TO.P,U1,6,GPIO7/SCL*%
%TO.N,unconnected-(U1-GPIO7{slash}SCL-Pad6)*%
X159067500Y-76517500D03*
%TO.P,U1,7,GPIO0/TX*%
%TO.N,unconnected-(U1-GPIO0{slash}TX-Pad7)*%
X159067500Y-79057500D03*
%TO.P,U1,8,GPIO1/RX*%
%TO.N,Net-(U1-GPIO1{slash}RX)*%
X174307500Y-79057500D03*
%TO.P,U1,9,GPIO2/SCK*%
%TO.N,Net-(U1-GPIO2{slash}SCK)*%
X174307500Y-76517500D03*
%TO.P,U1,10,GPIO4/MISO*%
%TO.N,Net-(U1-GPIO4{slash}MISO)*%
X174307500Y-73977500D03*
%TO.P,U1,11,GPIO3/MOSI*%
%TO.N,Net-(U1-GPIO3{slash}MOSI)*%
X174307500Y-71437500D03*
%TO.P,U1,12,3V3*%
%TO.N,unconnected-(U1-3V3-Pad12)*%
X174307500Y-68897500D03*
%TO.P,U1,13,GND*%
%TO.N,GND*%
X174307500Y-66357500D03*
%TO.P,U1,14,VBUS*%
%TO.N,+5V*%
X174307500Y-63817500D03*
%TD*%
D10*
%TO.P,SW3,1,1*%
%TO.N,GND*%
X159543750Y-119062500D03*
%TO.P,SW3,2,2*%
%TO.N,Net-(U1-GPIO4{slash}MISO)*%
X153193750Y-121602500D03*
%TD*%
%TO.P,SW4,1,1*%
%TO.N,GND*%
X178593750Y-119062500D03*
%TO.P,SW4,2,2*%
%TO.N,Net-(U1-GPIO3{slash}MOSI)*%
X172243750Y-121602500D03*
%TD*%
%TO.P,SW1,1,1*%
%TO.N,GND*%
X159543750Y-100012500D03*
%TO.P,SW1,2,2*%
%TO.N,Net-(U1-GPIO1{slash}RX)*%
X153193750Y-102552500D03*
%TD*%
D12*
%TO.N,Net-(U1-GPIO1{slash}RX)*%
X168800000Y-85050000D03*
%TO.N,Net-(U1-GPIO4{slash}MISO)*%
X165200000Y-90100000D03*
%TD*%
D13*
%TO.N,Net-(U1-GPIO1{slash}RX)*%
X153193750Y-102552500D02*
X153193750Y-100656250D01*
X153193750Y-100656250D02*
X168800000Y-85050000D01*
%TO.N,Net-(U1-GPIO2{slash}SCK)*%
X172243750Y-102552500D02*
X172243750Y-78581250D01*
X172243750Y-78581250D02*
X174307500Y-76517500D01*
%TO.N,Net-(U1-GPIO4{slash}MISO)*%
X153193750Y-121602500D02*
X153193750Y-120806250D01*
X165100000Y-90200000D02*
X165200000Y-90100000D01*
X153193750Y-120806250D02*
X164900000Y-109100000D01*
X153193750Y-121056250D02*
X165100000Y-109150000D01*
X153193750Y-121602500D02*
X153193750Y-121056250D01*
X165100000Y-109150000D02*
X165100000Y-90200000D01*
%TO.N,Net-(U1-GPIO3{slash}MOSI)*%
X169450000Y-118808750D02*
X169450000Y-76295000D01*
X172243750Y-121602500D02*
X169450000Y-118808750D01*
X169450000Y-76295000D02*
X174307500Y-71437500D01*
%TD*%
M02*
