%TF.GenerationSoftware,KiCad,Pcbnew,9.0.6*%
%TF.CreationDate,2025-12-05T22:26:19+05:30*%
%TF.ProjectId,MacropadHACKYEahh,4d616372-6f70-4616-9448-41434b594561,rev?*%
%TF.SameCoordinates,Original*%
%TF.FileFunction,Copper,L1,Top*%
%TF.FilePolarity,Positive*%
%FSLAX46Y46*%
G04 Gerber Fmt 4.6, Leading zero omitted, Abs format (unit mm)*
G04 Created by KiCad (PCBNEW 9.0.6) date 2025-12-05 22:26:19*
%MOMM*%
%LPD*%
G01*
G04 APERTURE LIST*
G04 Aperture macros list*
%AMRoundRect*
0 Rectangle with rounded corners*
0 $1 Rounding radius*
0 $2 $3 $4 $5 $6 $7 $8 $9 X,Y pos of 4 corners*
0 Add a 4 corners polygon primitive as box body*
4,1,4,$2,$3,$4,$5,$6,$7,$8,$9,$2,$3,0*
0 Add four circle primitives for the rounded corners*
1,1,$1+$1,$2,$3*
1,1,$1+$1,$4,$5*
1,1,$1+$1,$6,$7*
1,1,$1+$1,$8,$9*
0 Add four rect primitives between the rounded corners*
20,1,$1+$1,$2,$3,$4,$5,0*
20,1,$1+$1,$4,$5,$6,$7,0*
20,1,$1+$1,$6,$7,$8,$9,0*
20,1,$1+$1,$8,$9,$2,$3,0*%
G04 Aperture macros list end*
%TA.AperFunction,ComponentPad*%
%ADD10C,2.200000*%
%TD*%
%TA.AperFunction,SMDPad,CuDef*%
%ADD11RoundRect,0.152400X1.063600X0.609600X-1.063600X0.609600X-1.063600X-0.609600X1.063600X-0.609600X0*%
%TD*%
%TA.AperFunction,ComponentPad*%
%ADD12C,1.524000*%
%TD*%
%TA.AperFunction,SMDPad,CuDef*%
%ADD13RoundRect,0.152400X-1.063600X-0.609600X1.063600X-0.609600X1.063600X0.609600X-1.063600X0.609600X0*%
%TD*%
%TA.AperFunction,SMDPad,CuDef*%
%ADD14R,1.600000X0.850000*%
%TD*%
%TA.AperFunction,ViaPad*%
%ADD15C,0.600000*%
%TD*%
%TA.AperFunction,Conductor*%
%ADD16C,0.200000*%
%TD*%
G04 APERTURE END LIST*
D10*
%TO.P,SW2,1,1*%
%TO.N,GND*%
X178593750Y-100012500D03*
%TO.P,SW2,2,2*%
%TO.N,Net-(U1-GPIO2{slash}SCK)*%
X172243750Y-102552500D03*
%TD*%
D11*
%TO.P,U1,1,GPIO26/ADC0/A0*%
%TO.N,unconnected-(U1-GPIO26{slash}ADC0{slash}A0-Pad1)*%
X158232500Y-63817500D03*
D12*
X159067500Y-63817500D03*
D11*
%TO.P,U1,2,GPIO27/ADC1/A1*%
%TO.N,unconnected-(U1-GPIO27{slash}ADC1{slash}A1-Pad2)*%
X158232500Y-66357500D03*
D12*
X159067500Y-66357500D03*
D11*
%TO.P,U1,3,GPIO28/ADC2/A2*%
%TO.N,unconnected-(U1-GPIO28{slash}ADC2{slash}A2-Pad3)*%
X158232500Y-68897500D03*
D12*
X159067500Y-68897500D03*
D11*
%TO.P,U1,4,GPIO29/ADC3/A3*%
%TO.N,unconnected-(U1-GPIO29{slash}ADC3{slash}A3-Pad4)*%
X158232500Y-71437500D03*
D12*
X159067500Y-71437500D03*
D11*
%TO.P,U1,5,GPIO6/SDA*%
%TO.N,Net-(D1-DIN)*%
X158232500Y-73977500D03*
D12*
X159067500Y-73977500D03*
D11*
%TO.P,U1,6,GPIO7/SCL*%
%TO.N,unconnected-(U1-GPIO7{slash}SCL-Pad6)*%
X158232500Y-76517500D03*
D12*
X159067500Y-76517500D03*
D11*
%TO.P,U1,7,GPIO0/TX*%
%TO.N,unconnected-(U1-GPIO0{slash}TX-Pad7)*%
X158232500Y-79057500D03*
D12*
X159067500Y-79057500D03*
%TO.P,U1,8,GPIO1/RX*%
%TO.N,Net-(U1-GPIO1{slash}RX)*%
X174307500Y-79057500D03*
D13*
X175142500Y-79057500D03*
D12*
%TO.P,U1,9,GPIO2/SCK*%
%TO.N,Net-(U1-GPIO2{slash}SCK)*%
X174307500Y-76517500D03*
D13*
X175142500Y-76517500D03*
D12*
%TO.P,U1,10,GPIO4/MISO*%
%TO.N,Net-(U1-GPIO4{slash}MISO)*%
X174307500Y-73977500D03*
D13*
X175142500Y-73977500D03*
D12*
%TO.P,U1,11,GPIO3/MOSI*%
%TO.N,Net-(U1-GPIO3{slash}MOSI)*%
X174307500Y-71437500D03*
D13*
X175142500Y-71437500D03*
D12*
%TO.P,U1,12,3V3*%
%TO.N,unconnected-(U1-3V3-Pad12)*%
X174307500Y-68897500D03*
D13*
X175142500Y-68897500D03*
D12*
%TO.P,U1,13,GND*%
%TO.N,GND*%
X174307500Y-66357500D03*
D13*
X175142500Y-66357500D03*
D12*
%TO.P,U1,14,VBUS*%
%TO.N,+5V*%
X174307500Y-63817500D03*
D13*
X175142500Y-63817500D03*
%TD*%
D10*
%TO.P,SW3,1,1*%
%TO.N,GND*%
X159543750Y-119062500D03*
%TO.P,SW3,2,2*%
%TO.N,Net-(U1-GPIO4{slash}MISO)*%
X153193750Y-121602500D03*
%TD*%
%TO.P,SW4,1,1*%
%TO.N,GND*%
X178593750Y-119062500D03*
%TO.P,SW4,2,2*%
%TO.N,Net-(U1-GPIO3{slash}MOSI)*%
X172243750Y-121602500D03*
%TD*%
%TO.P,SW1,1,1*%
%TO.N,GND*%
X159543750Y-100012500D03*
%TO.P,SW1,2,2*%
%TO.N,Net-(U1-GPIO1{slash}RX)*%
X153193750Y-102552500D03*
%TD*%
D14*
%TO.P,D2,1,DOUT*%
%TO.N,unconnected-(D2-DOUT-Pad1)*%
X184618750Y-69056250D03*
%TO.P,D2,2,VSS*%
%TO.N,GND*%
X184618750Y-70806250D03*
%TO.P,D2,3,DIN*%
%TO.N,Net-(D1-DOUT)*%
X188118750Y-70806250D03*
%TO.P,D2,4,VDD*%
%TO.N,+5V*%
X188118750Y-69056250D03*
%TD*%
%TO.P,D1,1,DOUT*%
%TO.N,Net-(D1-DOUT)*%
X145887500Y-70562500D03*
%TO.P,D1,2,VSS*%
%TO.N,GND*%
X145887500Y-72312500D03*
%TO.P,D1,3,DIN*%
%TO.N,Net-(D1-DIN)*%
X149387500Y-72312500D03*
%TO.P,D1,4,VDD*%
%TO.N,+5V*%
X149387500Y-70562500D03*
%TD*%
D15*
%TO.N,Net-(U1-GPIO1{slash}RX)*%
X168800000Y-85050000D03*
%TO.N,Net-(U1-GPIO4{slash}MISO)*%
X165200000Y-90100000D03*
%TD*%
D16*
%TO.N,Net-(D1-DOUT)*%
X145887500Y-65912500D02*
X150100000Y-61700000D01*
X192343750Y-70806250D02*
X188118750Y-70806250D01*
X184950000Y-61700000D02*
X185000000Y-61750000D01*
X192350000Y-67650000D02*
X192350000Y-70500000D01*
X150100000Y-61700000D02*
X184950000Y-61700000D01*
X145887500Y-70562500D02*
X145887500Y-65912500D01*
X192500000Y-70650000D02*
X192343750Y-70806250D01*
X185000000Y-61750000D02*
X186450000Y-61750000D01*
X186450000Y-61750000D02*
X192350000Y-67650000D01*
X192350000Y-70500000D02*
X192500000Y-70650000D01*
%TO.N,Net-(D1-DIN)*%
X149387500Y-72312500D02*
X156567500Y-72312500D01*
X156567500Y-72312500D02*
X158232500Y-73977500D01*
%TO.N,GND*%
X178593750Y-76831250D02*
X184618750Y-70806250D01*
X159543750Y-100012500D02*
X178593750Y-100012500D01*
X178593750Y-100012500D02*
X178593750Y-76831250D01*
X180170000Y-66357500D02*
X184618750Y-70806250D01*
X145887500Y-72312500D02*
X145887500Y-86356250D01*
X178593750Y-119062500D02*
X178593750Y-100012500D01*
X175142500Y-66357500D02*
X180170000Y-66357500D01*
X159543750Y-100012500D02*
X159543750Y-119062500D01*
X145887500Y-86356250D02*
X159543750Y-100012500D01*
%TO.N,+5V*%
X175142500Y-63817500D02*
X182880000Y-63817500D01*
X149387500Y-70562500D02*
X149387500Y-65512500D01*
X182880000Y-63817500D02*
X188118750Y-69056250D01*
X152145500Y-62754500D02*
X173244500Y-62754500D01*
X173244500Y-62754500D02*
X174307500Y-63817500D01*
X149387500Y-65512500D02*
X152145500Y-62754500D01*
%TO.N,Net-(U1-GPIO1{slash}RX)*%
X168800000Y-85050000D02*
X174307500Y-79542500D01*
X174307500Y-79542500D02*
X174307500Y-79057500D01*
%TO.N,Net-(U1-GPIO4{slash}MISO)*%
X165200000Y-90100000D02*
X165200000Y-83085000D01*
X165200000Y-83085000D02*
X174307500Y-73977500D01*
%TD*%
M02*
