M48
; DRILL file {KiCad 9.0.6} date 2025-12-05T22:26:22+0530
; FORMAT={-:-/ absolute / metric / decimal}
; #@! TF.CreationDate,2025-12-05T22:26:22+05:30
; #@! TF.GenerationSoftware,Kicad,Pcbnew,9.0.6
; #@! TF.FileFunction,Plated,1,2,PTH
FMAT,2
METRIC
; #@! TA.AperFunction,Plated,PTH,ViaDrill
T1C0.300
; #@! TA.AperFunction,Plated,PTH,ComponentDrill
T2C0.889
; #@! TA.AperFunction,Plated,PTH,ComponentDrill
T3C1.500
%
G90
G05
T1
X165.2Y-90.1
X168.8Y-85.05
T2
X159.067Y-63.817
X159.067Y-66.358
X159.067Y-68.897
X159.067Y-71.438
X159.067Y-73.977
X159.067Y-76.517
X159.067Y-79.057
X174.308Y-63.817
X174.308Y-66.358
X174.308Y-68.897
X174.308Y-71.438
X174.308Y-73.977
X174.308Y-76.517
X174.308Y-79.057
T3
X153.194Y-102.552
X153.194Y-121.602
X159.544Y-100.012
X159.544Y-119.062
X172.244Y-102.552
X172.244Y-121.602
X178.594Y-100.012
X178.594Y-119.062
M30
