%TF.GenerationSoftware,KiCad,Pcbnew,9.0.6*%
%TF.CreationDate,2025-12-05T22:26:19+05:30*%
%TF.ProjectId,MacropadHACKYEahh,4d616372-6f70-4616-9448-41434b594561,rev?*%
%TF.SameCoordinates,Original*%
%TF.FileFunction,Legend,Top*%
%TF.FilePolarity,Positive*%
%FSLAX46Y46*%
G04 Gerber Fmt 4.6, Leading zero omitted, Abs format (unit mm)*
G04 Created by KiCad (PCBNEW 9.0.6) date 2025-12-05 22:26:19*
%MOMM*%
%LPD*%
G01*
G04 APERTURE LIST*
%ADD10C,0.100000*%
%ADD11C,0.150000*%
%ADD12C,0.101600*%
%ADD13C,0.120000*%
%ADD14C,0.127000*%
%ADD15C,0.504000*%
G04 APERTURE END LIST*
D10*
X163453884Y-75022419D02*
X163453884Y-74022419D01*
X163453884Y-74498609D02*
X164025312Y-74498609D01*
X164025312Y-75022419D02*
X164025312Y-74022419D01*
X164453884Y-74736704D02*
X164930074Y-74736704D01*
X164358646Y-75022419D02*
X164691979Y-74022419D01*
X164691979Y-74022419D02*
X165025312Y-75022419D01*
X165930074Y-74927180D02*
X165882455Y-74974800D01*
X165882455Y-74974800D02*
X165739598Y-75022419D01*
X165739598Y-75022419D02*
X165644360Y-75022419D01*
X165644360Y-75022419D02*
X165501503Y-74974800D01*
X165501503Y-74974800D02*
X165406265Y-74879561D01*
X165406265Y-74879561D02*
X165358646Y-74784323D01*
X165358646Y-74784323D02*
X165311027Y-74593847D01*
X165311027Y-74593847D02*
X165311027Y-74450990D01*
X165311027Y-74450990D02*
X165358646Y-74260514D01*
X165358646Y-74260514D02*
X165406265Y-74165276D01*
X165406265Y-74165276D02*
X165501503Y-74070038D01*
X165501503Y-74070038D02*
X165644360Y-74022419D01*
X165644360Y-74022419D02*
X165739598Y-74022419D01*
X165739598Y-74022419D02*
X165882455Y-74070038D01*
X165882455Y-74070038D02*
X165930074Y-74117657D01*
X166358646Y-75022419D02*
X166358646Y-74022419D01*
X166930074Y-75022419D02*
X166501503Y-74450990D01*
X166930074Y-74022419D02*
X166358646Y-74593847D01*
X167358646Y-75022419D02*
X167358646Y-74022419D01*
X167358646Y-74022419D02*
X167739598Y-74022419D01*
X167739598Y-74022419D02*
X167834836Y-74070038D01*
X167834836Y-74070038D02*
X167882455Y-74117657D01*
X167882455Y-74117657D02*
X167930074Y-74212895D01*
X167930074Y-74212895D02*
X167930074Y-74355752D01*
X167930074Y-74355752D02*
X167882455Y-74450990D01*
X167882455Y-74450990D02*
X167834836Y-74498609D01*
X167834836Y-74498609D02*
X167739598Y-74546228D01*
X167739598Y-74546228D02*
X167358646Y-74546228D01*
X168311027Y-74736704D02*
X168787217Y-74736704D01*
X168215789Y-75022419D02*
X168549122Y-74022419D01*
X168549122Y-74022419D02*
X168882455Y-75022419D01*
X169215789Y-75022419D02*
X169215789Y-74022419D01*
X169215789Y-74022419D02*
X169453884Y-74022419D01*
X169453884Y-74022419D02*
X169596741Y-74070038D01*
X169596741Y-74070038D02*
X169691979Y-74165276D01*
X169691979Y-74165276D02*
X169739598Y-74260514D01*
X169739598Y-74260514D02*
X169787217Y-74450990D01*
X169787217Y-74450990D02*
X169787217Y-74593847D01*
X169787217Y-74593847D02*
X169739598Y-74784323D01*
X169739598Y-74784323D02*
X169691979Y-74879561D01*
X169691979Y-74879561D02*
X169596741Y-74974800D01*
X169596741Y-74974800D02*
X169453884Y-75022419D01*
X169453884Y-75022419D02*
X169215789Y-75022419D01*
X170215789Y-75022419D02*
X170215789Y-74022419D01*
X170215789Y-74022419D02*
X170453884Y-74022419D01*
X170453884Y-74022419D02*
X170596741Y-74070038D01*
X170596741Y-74070038D02*
X170691979Y-74165276D01*
X170691979Y-74165276D02*
X170739598Y-74260514D01*
X170739598Y-74260514D02*
X170787217Y-74450990D01*
X170787217Y-74450990D02*
X170787217Y-74593847D01*
X170787217Y-74593847D02*
X170739598Y-74784323D01*
X170739598Y-74784323D02*
X170691979Y-74879561D01*
X170691979Y-74879561D02*
X170596741Y-74974800D01*
X170596741Y-74974800D02*
X170453884Y-75022419D01*
X170453884Y-75022419D02*
X170215789Y-75022419D01*
D11*
X174720417Y-97625700D02*
X174863274Y-97673319D01*
X174863274Y-97673319D02*
X175101369Y-97673319D01*
X175101369Y-97673319D02*
X175196607Y-97625700D01*
X175196607Y-97625700D02*
X175244226Y-97578080D01*
X175244226Y-97578080D02*
X175291845Y-97482842D01*
X175291845Y-97482842D02*
X175291845Y-97387604D01*
X175291845Y-97387604D02*
X175244226Y-97292366D01*
X175244226Y-97292366D02*
X175196607Y-97244747D01*
X175196607Y-97244747D02*
X175101369Y-97197128D01*
X175101369Y-97197128D02*
X174910893Y-97149509D01*
X174910893Y-97149509D02*
X174815655Y-97101890D01*
X174815655Y-97101890D02*
X174768036Y-97054271D01*
X174768036Y-97054271D02*
X174720417Y-96959033D01*
X174720417Y-96959033D02*
X174720417Y-96863795D01*
X174720417Y-96863795D02*
X174768036Y-96768557D01*
X174768036Y-96768557D02*
X174815655Y-96720938D01*
X174815655Y-96720938D02*
X174910893Y-96673319D01*
X174910893Y-96673319D02*
X175148988Y-96673319D01*
X175148988Y-96673319D02*
X175291845Y-96720938D01*
X175625179Y-96673319D02*
X175863274Y-97673319D01*
X175863274Y-97673319D02*
X176053750Y-96959033D01*
X176053750Y-96959033D02*
X176244226Y-97673319D01*
X176244226Y-97673319D02*
X176482322Y-96673319D01*
X176815655Y-96768557D02*
X176863274Y-96720938D01*
X176863274Y-96720938D02*
X176958512Y-96673319D01*
X176958512Y-96673319D02*
X177196607Y-96673319D01*
X177196607Y-96673319D02*
X177291845Y-96720938D01*
X177291845Y-96720938D02*
X177339464Y-96768557D01*
X177339464Y-96768557D02*
X177387083Y-96863795D01*
X177387083Y-96863795D02*
X177387083Y-96959033D01*
X177387083Y-96959033D02*
X177339464Y-97101890D01*
X177339464Y-97101890D02*
X176768036Y-97673319D01*
X176768036Y-97673319D02*
X177387083Y-97673319D01*
D12*
X175966190Y-61203479D02*
X175966190Y-61717526D01*
X175966190Y-61717526D02*
X175996428Y-61778002D01*
X175996428Y-61778002D02*
X176026666Y-61808241D01*
X176026666Y-61808241D02*
X176087142Y-61838479D01*
X176087142Y-61838479D02*
X176208095Y-61838479D01*
X176208095Y-61838479D02*
X176268571Y-61808241D01*
X176268571Y-61808241D02*
X176298809Y-61778002D01*
X176298809Y-61778002D02*
X176329047Y-61717526D01*
X176329047Y-61717526D02*
X176329047Y-61203479D01*
X176964047Y-61838479D02*
X176601190Y-61838479D01*
X176782618Y-61838479D02*
X176782618Y-61203479D01*
X176782618Y-61203479D02*
X176722142Y-61294193D01*
X176722142Y-61294193D02*
X176661666Y-61354669D01*
X176661666Y-61354669D02*
X176601190Y-61384907D01*
D11*
X155670417Y-116675700D02*
X155813274Y-116723319D01*
X155813274Y-116723319D02*
X156051369Y-116723319D01*
X156051369Y-116723319D02*
X156146607Y-116675700D01*
X156146607Y-116675700D02*
X156194226Y-116628080D01*
X156194226Y-116628080D02*
X156241845Y-116532842D01*
X156241845Y-116532842D02*
X156241845Y-116437604D01*
X156241845Y-116437604D02*
X156194226Y-116342366D01*
X156194226Y-116342366D02*
X156146607Y-116294747D01*
X156146607Y-116294747D02*
X156051369Y-116247128D01*
X156051369Y-116247128D02*
X155860893Y-116199509D01*
X155860893Y-116199509D02*
X155765655Y-116151890D01*
X155765655Y-116151890D02*
X155718036Y-116104271D01*
X155718036Y-116104271D02*
X155670417Y-116009033D01*
X155670417Y-116009033D02*
X155670417Y-115913795D01*
X155670417Y-115913795D02*
X155718036Y-115818557D01*
X155718036Y-115818557D02*
X155765655Y-115770938D01*
X155765655Y-115770938D02*
X155860893Y-115723319D01*
X155860893Y-115723319D02*
X156098988Y-115723319D01*
X156098988Y-115723319D02*
X156241845Y-115770938D01*
X156575179Y-115723319D02*
X156813274Y-116723319D01*
X156813274Y-116723319D02*
X157003750Y-116009033D01*
X157003750Y-116009033D02*
X157194226Y-116723319D01*
X157194226Y-116723319D02*
X157432322Y-115723319D01*
X157718036Y-115723319D02*
X158337083Y-115723319D01*
X158337083Y-115723319D02*
X158003750Y-116104271D01*
X158003750Y-116104271D02*
X158146607Y-116104271D01*
X158146607Y-116104271D02*
X158241845Y-116151890D01*
X158241845Y-116151890D02*
X158289464Y-116199509D01*
X158289464Y-116199509D02*
X158337083Y-116294747D01*
X158337083Y-116294747D02*
X158337083Y-116532842D01*
X158337083Y-116532842D02*
X158289464Y-116628080D01*
X158289464Y-116628080D02*
X158241845Y-116675700D01*
X158241845Y-116675700D02*
X158146607Y-116723319D01*
X158146607Y-116723319D02*
X157860893Y-116723319D01*
X157860893Y-116723319D02*
X157765655Y-116675700D01*
X157765655Y-116675700D02*
X157718036Y-116628080D01*
X174720417Y-116675700D02*
X174863274Y-116723319D01*
X174863274Y-116723319D02*
X175101369Y-116723319D01*
X175101369Y-116723319D02*
X175196607Y-116675700D01*
X175196607Y-116675700D02*
X175244226Y-116628080D01*
X175244226Y-116628080D02*
X175291845Y-116532842D01*
X175291845Y-116532842D02*
X175291845Y-116437604D01*
X175291845Y-116437604D02*
X175244226Y-116342366D01*
X175244226Y-116342366D02*
X175196607Y-116294747D01*
X175196607Y-116294747D02*
X175101369Y-116247128D01*
X175101369Y-116247128D02*
X174910893Y-116199509D01*
X174910893Y-116199509D02*
X174815655Y-116151890D01*
X174815655Y-116151890D02*
X174768036Y-116104271D01*
X174768036Y-116104271D02*
X174720417Y-116009033D01*
X174720417Y-116009033D02*
X174720417Y-115913795D01*
X174720417Y-115913795D02*
X174768036Y-115818557D01*
X174768036Y-115818557D02*
X174815655Y-115770938D01*
X174815655Y-115770938D02*
X174910893Y-115723319D01*
X174910893Y-115723319D02*
X175148988Y-115723319D01*
X175148988Y-115723319D02*
X175291845Y-115770938D01*
X175625179Y-115723319D02*
X175863274Y-116723319D01*
X175863274Y-116723319D02*
X176053750Y-116009033D01*
X176053750Y-116009033D02*
X176244226Y-116723319D01*
X176244226Y-116723319D02*
X176482322Y-115723319D01*
X177291845Y-116056652D02*
X177291845Y-116723319D01*
X177053750Y-115675700D02*
X176815655Y-116389985D01*
X176815655Y-116389985D02*
X177434702Y-116389985D01*
X155670417Y-97625700D02*
X155813274Y-97673319D01*
X155813274Y-97673319D02*
X156051369Y-97673319D01*
X156051369Y-97673319D02*
X156146607Y-97625700D01*
X156146607Y-97625700D02*
X156194226Y-97578080D01*
X156194226Y-97578080D02*
X156241845Y-97482842D01*
X156241845Y-97482842D02*
X156241845Y-97387604D01*
X156241845Y-97387604D02*
X156194226Y-97292366D01*
X156194226Y-97292366D02*
X156146607Y-97244747D01*
X156146607Y-97244747D02*
X156051369Y-97197128D01*
X156051369Y-97197128D02*
X155860893Y-97149509D01*
X155860893Y-97149509D02*
X155765655Y-97101890D01*
X155765655Y-97101890D02*
X155718036Y-97054271D01*
X155718036Y-97054271D02*
X155670417Y-96959033D01*
X155670417Y-96959033D02*
X155670417Y-96863795D01*
X155670417Y-96863795D02*
X155718036Y-96768557D01*
X155718036Y-96768557D02*
X155765655Y-96720938D01*
X155765655Y-96720938D02*
X155860893Y-96673319D01*
X155860893Y-96673319D02*
X156098988Y-96673319D01*
X156098988Y-96673319D02*
X156241845Y-96720938D01*
X156575179Y-96673319D02*
X156813274Y-97673319D01*
X156813274Y-97673319D02*
X157003750Y-96959033D01*
X157003750Y-96959033D02*
X157194226Y-97673319D01*
X157194226Y-97673319D02*
X157432322Y-96673319D01*
X158337083Y-97673319D02*
X157765655Y-97673319D01*
X158051369Y-97673319D02*
X158051369Y-96673319D01*
X158051369Y-96673319D02*
X157956131Y-96816176D01*
X157956131Y-96816176D02*
X157860893Y-96911414D01*
X157860893Y-96911414D02*
X157765655Y-96959033D01*
X185630655Y-67636069D02*
X185630655Y-66636069D01*
X185630655Y-66636069D02*
X185868750Y-66636069D01*
X185868750Y-66636069D02*
X186011607Y-66683688D01*
X186011607Y-66683688D02*
X186106845Y-66778926D01*
X186106845Y-66778926D02*
X186154464Y-66874164D01*
X186154464Y-66874164D02*
X186202083Y-67064640D01*
X186202083Y-67064640D02*
X186202083Y-67207497D01*
X186202083Y-67207497D02*
X186154464Y-67397973D01*
X186154464Y-67397973D02*
X186106845Y-67493211D01*
X186106845Y-67493211D02*
X186011607Y-67588450D01*
X186011607Y-67588450D02*
X185868750Y-67636069D01*
X185868750Y-67636069D02*
X185630655Y-67636069D01*
X186583036Y-66731307D02*
X186630655Y-66683688D01*
X186630655Y-66683688D02*
X186725893Y-66636069D01*
X186725893Y-66636069D02*
X186963988Y-66636069D01*
X186963988Y-66636069D02*
X187059226Y-66683688D01*
X187059226Y-66683688D02*
X187106845Y-66731307D01*
X187106845Y-66731307D02*
X187154464Y-66826545D01*
X187154464Y-66826545D02*
X187154464Y-66921783D01*
X187154464Y-66921783D02*
X187106845Y-67064640D01*
X187106845Y-67064640D02*
X186535417Y-67636069D01*
X186535417Y-67636069D02*
X187154464Y-67636069D01*
X183397321Y-69418545D02*
X182940178Y-69418545D01*
X183168750Y-69418545D02*
X183168750Y-68618545D01*
X183168750Y-68618545D02*
X183092559Y-68732830D01*
X183092559Y-68732830D02*
X183016369Y-68809021D01*
X183016369Y-68809021D02*
X182940178Y-68847116D01*
X146899405Y-69142319D02*
X146899405Y-68142319D01*
X146899405Y-68142319D02*
X147137500Y-68142319D01*
X147137500Y-68142319D02*
X147280357Y-68189938D01*
X147280357Y-68189938D02*
X147375595Y-68285176D01*
X147375595Y-68285176D02*
X147423214Y-68380414D01*
X147423214Y-68380414D02*
X147470833Y-68570890D01*
X147470833Y-68570890D02*
X147470833Y-68713747D01*
X147470833Y-68713747D02*
X147423214Y-68904223D01*
X147423214Y-68904223D02*
X147375595Y-68999461D01*
X147375595Y-68999461D02*
X147280357Y-69094700D01*
X147280357Y-69094700D02*
X147137500Y-69142319D01*
X147137500Y-69142319D02*
X146899405Y-69142319D01*
X148423214Y-69142319D02*
X147851786Y-69142319D01*
X148137500Y-69142319D02*
X148137500Y-68142319D01*
X148137500Y-68142319D02*
X148042262Y-68285176D01*
X148042262Y-68285176D02*
X147947024Y-68380414D01*
X147947024Y-68380414D02*
X147851786Y-68428033D01*
X144666071Y-70924795D02*
X144208928Y-70924795D01*
X144437500Y-70924795D02*
X144437500Y-70124795D01*
X144437500Y-70124795D02*
X144361309Y-70239080D01*
X144361309Y-70239080D02*
X144285119Y-70315271D01*
X144285119Y-70315271D02*
X144208928Y-70353366D01*
D13*
%TO.C,SW2*%
X169068750Y-98107500D02*
X183038750Y-98107500D01*
X169068750Y-112077500D02*
X169068750Y-98107500D01*
X183038750Y-98107500D02*
X183038750Y-112077500D01*
X183038750Y-112077500D02*
X169068750Y-112077500D01*
D14*
%TO.C,U1*%
X157797500Y-79946500D02*
X157797500Y-62801500D01*
X159702500Y-81851500D02*
X173672500Y-81851500D01*
X162192500Y-60896500D02*
X162196228Y-59986228D01*
X162696228Y-59486500D02*
X170691500Y-59486500D01*
X171191500Y-59986500D02*
X171191500Y-60896500D01*
D10*
X173672500Y-60896500D02*
X159702500Y-60896500D01*
D14*
X173672500Y-60896500D02*
X159702500Y-60896500D01*
X175577500Y-79946500D02*
X175577500Y-62801500D01*
X157797500Y-62801500D02*
G75*
G02*
X159702500Y-60896500I1905001J-1D01*
G01*
X159702500Y-81851500D02*
G75*
G02*
X157797500Y-79946500I1J1905001D01*
G01*
X162196228Y-59986228D02*
G75*
G02*
X162696228Y-59486501I500018J-291D01*
G01*
X170691500Y-59486500D02*
G75*
G02*
X171191500Y-59986500I0J-500000D01*
G01*
X173672500Y-60896500D02*
G75*
G02*
X175577500Y-62801500I0J-1905000D01*
G01*
X175577500Y-79946500D02*
G75*
G02*
X173672500Y-81851500I-1905000J0D01*
G01*
D15*
X157989500Y-61137500D02*
G75*
G02*
X157485500Y-61137500I-252000J0D01*
G01*
X157485500Y-61137500D02*
G75*
G02*
X157989500Y-61137500I252000J0D01*
G01*
X159132500Y-62017500D02*
G75*
G02*
X158628500Y-62017500I-252000J0D01*
G01*
X158628500Y-62017500D02*
G75*
G02*
X159132500Y-62017500I252000J0D01*
G01*
D13*
%TO.C,SW3*%
X150018750Y-117157500D02*
X163988750Y-117157500D01*
X150018750Y-131127500D02*
X150018750Y-117157500D01*
X163988750Y-117157500D02*
X163988750Y-131127500D01*
X163988750Y-131127500D02*
X150018750Y-131127500D01*
%TO.C,SW4*%
X169068750Y-117157500D02*
X183038750Y-117157500D01*
X169068750Y-131127500D02*
X169068750Y-117157500D01*
X183038750Y-117157500D02*
X183038750Y-131127500D01*
X183038750Y-131127500D02*
X169068750Y-131127500D01*
%TO.C,SW1*%
X150018750Y-98107500D02*
X163988750Y-98107500D01*
X150018750Y-112077500D02*
X150018750Y-98107500D01*
X163988750Y-98107500D02*
X163988750Y-112077500D01*
X163988750Y-112077500D02*
X150018750Y-112077500D01*
%TO.C,D2*%
X183568750Y-67931250D02*
X183568750Y-71931250D01*
X183568750Y-67931250D02*
X189168750Y-67931250D01*
X183568750Y-71931250D02*
X188568750Y-71931250D01*
X189168750Y-71331250D02*
X188568750Y-71931250D01*
X189168750Y-71331250D02*
X189168750Y-67931250D01*
%TO.C,D1*%
X144837500Y-69437500D02*
X144837500Y-73437500D01*
X144837500Y-69437500D02*
X150437500Y-69437500D01*
X144837500Y-73437500D02*
X149837500Y-73437500D01*
X150437500Y-72837500D02*
X149837500Y-73437500D01*
X150437500Y-72837500D02*
X150437500Y-69437500D01*
%TD*%
M02*
